<svg xmlns="http://www.w3.org/2000/svg" xmlns:xlink="http://www.w3.org/1999/xlink" width="740.24" height="236.18" viewBox="0 0 740.24 236.18">
  <defs>
    <style>
      .a, .ac, .af {
        fill: none;
      }

      .b {
        clip-path: url(#a);
      }

      .c {
        fill: url(#b);
      }

      .d {
        fill: #3f2720;
      }

      .e {
        clip-path: url(#c);
      }

      .f {
        fill: url(#d);
      }

      .g {
        fill: #404042;
      }

      .h {
        fill: #212121;
      }

      .i {
        fill: gray;
        stroke-width: 2px;
      }

      .ac, .i {
        stroke: #575757;
      }

      .af, .i, .j {
        stroke-miterlimit: 10;
      }

      .j {
        fill: #757575;
        stroke: #9e9e9e;
      }

      .k {
        fill: #424242;
      }

      .l {
        fill: #e59600;
      }

      .m {
        fill: #d18100;
      }

      .n {
        fill: #bdbdbd;
      }

      .o {
        fill: url(#j);
      }

      .p {
        fill: #ed9e00;
      }

      .q {
        clip-path: url(#k);
      }

      .r {
        fill: url(#l);
      }

      .s {
        fill: #404040;
      }

      .t {
        fill: #6d4c41;
      }

      .u {
        fill: #795548;
      }

      .v {
        fill: url(#n);
      }

      .w {
        fill: #575757;
      }

      .x {
        fill: url(#o);
      }

      .y {
        fill: #616161;
      }

      .z {
        fill: url(#r);
      }

      .aa {
        fill: url(#s);
      }

      .ab {
        fill: #eee;
        opacity: 0.2;
        isolation: isolate;
      }

      .ac, .al, .am {
        stroke-linecap: round;
        stroke-linejoin: round;
      }

      .ac {
        stroke-width: 3px;
      }

      .ad {
        opacity: 0.6;
      }

      .ae {
        fill: url(#t);
      }

      .af {
        stroke: #919191;
        stroke-width: 2.9px;
      }

      .ag {
        fill: #c7c7c7;
      }

      .ah {
        fill: url(#u);
      }

      .ai {
        fill: url(#v);
      }

      .aj {
        fill: #eb6a1f;
      }

      .ak {
        fill: #ababab;
      }

      .al, .am, .an {
        fill: #ffca28;
      }

      .al, .am {
        stroke: #eda600;
      }

      .al {
        stroke-width: 1.98px;
      }

      .am {
        stroke-width: 1.71px;
      }

      .ao {
        fill: #eda600;
      }

      .ap {
        fill: #fff;
      }

      .aq {
        fill: url(#w);
      }

      .ar {
        opacity: 0.2;
      }

      .as {
        fill: url(#x);
      }

      .at {
        fill: url(#y);
      }

      .au {
        fill: url(#z);
      }

      .av {
        fill: #039be5;
      }

      .aw {
        fill: url(#aa);
      }
    </style>
    <clipPath id="a" transform="translate(-5.46 -1.98)">
      <rect class="a" x="21.77" y="60.06" width="141.74" height="161.45"/>
    </clipPath>
    <radialGradient id="b" cx="-39.78" cy="382.99" r="98.15" gradientTransform="matrix(0.83, 0, 0, -0.83, 126.89, 307.79)" gradientUnits="userSpaceOnUse">
      <stop offset="0" stop-color="#6d4c41"/>
      <stop offset="1" stop-color="#543930"/>
    </radialGradient>
    <clipPath id="c" transform="translate(-5.46 -1.98)">
      <rect class="a" x="15.63" y="11.48" width="203.4" height="203.4"/>
    </clipPath>
    <linearGradient id="d" x1="93.59" y1="64.71" x2="93.59" y2="13.54" gradientTransform="matrix(1, 0, 0, -1, 0, 234)" gradientUnits="userSpaceOnUse">
      <stop offset="0.16" stop-color="#606060"/>
      <stop offset="0.29" stop-color="#606060"/>
      <stop offset="0.45" stop-color="#595959"/>
      <stop offset="0.68" stop-color="#464646"/>
      <stop offset="0.96" stop-color="#262626"/>
      <stop offset="1" stop-color="#212121"/>
    </linearGradient>
    <linearGradient id="j" x1="94.13" y1="68.92" x2="94.13" y2="199.14" gradientTransform="matrix(1, 0, 0, -1, 0, 234)" gradientUnits="userSpaceOnUse">
      <stop offset="0" stop-color="#ffb300"/>
      <stop offset="0.1" stop-color="#ffb809"/>
      <stop offset="0.37" stop-color="#ffc21a"/>
      <stop offset="0.66" stop-color="#ffc825"/>
      <stop offset="1" stop-color="#ffca28"/>
    </linearGradient>
    <clipPath id="k" transform="translate(-5.46 -1.98)">
      <path class="a" d="M36.66,155.14,34.12,67.94c0-28.73,26.75-50.6,55.48-50.6H98c28.73,0,55.16,21.87,55.16,50.6l-2.54,86.75Z"/>
    </clipPath>
    <radialGradient id="l" cx="-56.52" cy="370.41" r="77.88" gradientTransform="matrix(0.8, 0, 0, -0.8, 138.58, 299.38)" xlink:href="#b"/>
    <linearGradient id="n" x1="67.62" y1="68.49" x2="67.62" y2="-1.6" gradientTransform="matrix(1, 0, 0, -1, 0, 234)" gradientUnits="userSpaceOnUse">
      <stop offset="0.13" stop-color="#757575"/>
      <stop offset="0.3" stop-color="#707070"/>
      <stop offset="0.5" stop-color="#626262"/>
      <stop offset="0.72" stop-color="#4b4b4b"/>
      <stop offset="0.94" stop-color="#2b2b2b"/>
      <stop offset="1" stop-color="#212121"/>
    </linearGradient>
    <linearGradient id="o" x1="119.5" y1="68.54" x2="119.5" y2="-1.6" xlink:href="#n"/>
    <radialGradient id="r" cx="83.85" cy="188.75" r="100.67" gradientTransform="matrix(0.95, 0, 0, -0.78, 13.66, 209.55)" gradientUnits="userSpaceOnUse">
      <stop offset="0" stop-color="#757575"/>
      <stop offset="0.33" stop-color="#686868"/>
      <stop offset="0.94" stop-color="#464646"/>
      <stop offset="1" stop-color="#424242"/>
    </radialGradient>
    <radialGradient id="s" cx="313.02" cy="-49.76" r="54.57" gradientTransform="matrix(0, 0.93, 1.47, 0, 165.47, -275.97)" xlink:href="#r"/>
    <radialGradient id="t" cx="105.02" cy="147.19" r="71.03" gradientTransform="matrix(0.99, 0.11, 0.11, -0.99, -7.95, 209.63)" gradientUnits="userSpaceOnUse">
      <stop offset="0" stop-color="#fafafa"/>
      <stop offset="1" stop-color="#eee"/>
    </radialGradient>
    <radialGradient id="u" cx="133.07" cy="181.21" r="83" gradientTransform="matrix(1, -0.02, -0.02, -1, 2.2, 243.75)" gradientUnits="userSpaceOnUse">
      <stop offset="0" stop-color="#e0e0e0"/>
      <stop offset="0.23" stop-color="#dbdbdb"/>
      <stop offset="0.49" stop-color="#cdcdcd"/>
      <stop offset="0.78" stop-color="#b5b5b5"/>
      <stop offset="1" stop-color="#9e9e9e"/>
    </radialGradient>
    <radialGradient id="v" cx="169.79" cy="90.15" r="42" gradientTransform="matrix(0.99, 0.11, 0.11, -0.99, -7.95, 209.63)" gradientUnits="userSpaceOnUse">
      <stop offset="0" stop-color="#ffa726"/>
      <stop offset="0.04" stop-color="#ffa623"/>
      <stop offset="0.52" stop-color="#ff9800"/>
      <stop offset="1" stop-color="#fb8c00"/>
    </radialGradient>
    <linearGradient id="w" x1="149.9" y1="-210.83" x2="149.9" y2="-229.52" gradientTransform="matrix(0.71, -0.71, -0.71, -0.71, 344.91, 84.03)" gradientUnits="userSpaceOnUse">
      <stop offset="0" stop-color="#eee"/>
      <stop offset="1" stop-color="#9e9e9e"/>
    </linearGradient>
    <radialGradient id="x" cx="552.52" cy="231.38" r="156.34" gradientTransform="matrix(1, 0, 0, -1, 0, 234)" xlink:href="#u"/>
    <radialGradient id="y" cx="628.81" cy="101.43" r="98.37" gradientTransform="matrix(1, 0, 0, -1, 0, 234)" xlink:href="#v"/>
    <radialGradient id="z" cx="514" cy="194.84" r="124.06" gradientTransform="matrix(1, 0, 0, -1, 0, 234)" gradientUnits="userSpaceOnUse">
      <stop offset="0" stop-color="#b3e5fc"/>
      <stop offset="0.17" stop-color="#ade3fc"/>
      <stop offset="0.39" stop-color="#9dddfb"/>
      <stop offset="0.65" stop-color="#81d4fa"/>
      <stop offset="0.92" stop-color="#5cc7f8"/>
      <stop offset="1" stop-color="#4fc3f7"/>
    </radialGradient>
    <radialGradient id="aa" cx="617.02" cy="97.3" r="24.57" gradientTransform="matrix(1, 0, 0, -1, 0, 234)" gradientUnits="userSpaceOnUse">
      <stop offset="0" stop-color="#e0e0e0"/>
      <stop offset="1" stop-color="#9e9e9e"/>
    </radialGradient>
  </defs>
  <title>EmojiScavengerHunt-logo</title>
  <g>
    <g class="b">
      <g>
        <path class="c" d="M64.82,207.55s-11.53-.59-17.31-8.63C35,181.58,28.16,138.22,28.16,76.84c0-2.81.44-27.8,18.07-45.48C57.67,19.89,73.94,14.08,94.57,14.08c20.48,0,36.48,5.73,47.55,17,16.65,17,17,41,16.93,45.58,0,61.55-6.88,104.91-19.36,122.25-5.59,7.78-16.61,8.58-17.37,8.63l-28.71-.05Z" transform="translate(-5.46 -1.98)"/>
        <path class="d" d="M94.57,16.62c19.76,0,35.15,5.47,45.73,16.26,16.27,16.61,16.26,41,16.2,43.75v.2c0,60.85-6.71,103.68-18.88,120.6-4.81,6.68-14.49,7.51-15.39,7.56l-28.65-.05L65,205c-1-.07-10.59-.92-15.39-7.56C37.41,180.51,30.7,137.69,30.7,76.79c0-1.07.14-26.41,17.32-43.65C59,22.18,74.63,16.62,94.57,16.62m0-5.09c-69.51,0-69,64.28-69,65.31,0,41.63,3.19,100.43,19.85,123.57,6.61,9.17,19.37,9.68,19.37,9.68L93.6,210l28.76.05s12.76-.51,19.37-9.68c16.66-23.14,19.85-81.94,19.85-123.57,0-1,2.49-65.31-67-65.31Z" transform="translate(-5.46 -1.98)"/>
      </g>
    </g>
    <g class="e">
      <g>
        <path class="f" d="M8,235.09V209.22c0-27.53,43-39.88,85.6-39.93h.22c42.43,0,85.36,13.71,85.36,39.93v25.87Z" transform="translate(-5.46 -1.98)"/>
        <path class="g" d="M93.82,171.83c21.87,0,43.09,3.71,58.24,10.17,11.22,4.8,24.59,13.41,24.59,27.21v23.32H10.54V209.21c0-25.76,41.71-37.34,83.06-37.39l.22,0m0-5.09H93.6c-43.21.05-88.14,12.34-88.14,42.48v28.41H181.74V209.22c0-28.39-44.51-42.48-87.92-42.48Z" transform="translate(-5.46 -1.98)"/>
      </g>
    </g>
    <g class="e">
      <path class="h" d="M145.45,152.32c0,3.63-3.83,7-10.31,9.68C125.69,165.95,107,217.26,90,217.26c-11.07,0-17.75-49.85-26.15-51.7-13.36-2.93-22.09-7.76-22.09-13.24,0-8.93,23.2-16.17,51.85-16.17S145.45,143.39,145.45,152.32Z" transform="translate(-5.46 -1.98)"/>
    </g>
    <g class="e">
      <g>
        <path class="i" d="M19.27,181.87a2.68,2.68,0,0,0-.27,3.51l5.27,6.34c.88,1.05,2.8,2.47,3.93,1.7,5.29-3.68,18-12.22,27.54-9.12l-6.44-13.1S30.11,169,19.27,181.87Z" transform="translate(-5.46 -1.98)"/>
        <g>
          <circle class="j" cx="28" cy="183.46" r="4.56" transform="translate(-163.04 182.52) rotate(-81.65)"/>
          <g>
            <circle class="k" cx="29.56" cy="183.69" r="0.93" transform="translate(-161.93 184.27) rotate(-81.65)"/>
            <circle class="k" cx="26.41" cy="183.22" r="0.93" transform="translate(-164.16 180.75) rotate(-81.65)"/>
          </g>
        </g>
      </g>
    </g>
    <g class="e">
      <g>
        <path class="i" d="M164.59,181.87a2.68,2.68,0,0,1,.27,3.51l-5.27,6.34c-.88,1.05-2.8,2.47-3.93,1.7-5.29-3.68-18-12.22-27.54-9.12l6.44-13.1S153.74,169,164.59,181.87Z" transform="translate(-5.46 -1.98)"/>
        <g>
          <circle class="j" cx="155.86" cy="183.46" r="4.56" transform="translate(-30.46 22.61) rotate(-8.35)"/>
          <g>
            <circle class="k" cx="154.29" cy="183.68" r="0.93" transform="translate(-30.51 22.39) rotate(-8.35)"/>
            <circle class="k" cx="157.46" cy="183.22" r="0.93" transform="translate(-30.41 22.84) rotate(-8.35)"/>
          </g>
        </g>
      </g>
    </g>
    <g class="e">
      <g>
        <path class="l" d="M92.19,190.12A12.25,12.25,0,0,1,79.89,178V162.75h27.39V178A12.24,12.24,0,0,1,95,190.12Z" transform="translate(-5.46 -1.98)"/>
        <path class="m" d="M105.6,164.42V178A10.55,10.55,0,0,1,95,188.41h-2.8A10.55,10.55,0,0,1,81.58,178V164.42h24M109,161H78.21V178a13.93,13.93,0,0,0,14,13.85H95A13.93,13.93,0,0,0,109,178V161Z" transform="translate(-5.46 -1.98)"/>
      </g>
    </g>
    <g class="e">
      <polygon class="n" points="70.22 180.7 76.31 228.16 88.48 228.16 89.17 228.16 100.63 228.16 106.06 180.7 70.22 180.7"/>
    </g>
    <g>
      <g>
        <g>
          <path class="o" d="M94.13,166a39.5,39.5,0,0,1-12.81-2.42c-19.2-6.8-41.65-27.7-41.65-64.21,0-48.68,29.34-66,54.46-66s54.46,17.27,54.46,66c0,36.58-22.48,57.46-41.71,64.24A39.64,39.64,0,0,1,94.13,166Z" transform="translate(-5.46 -1.98)"/>
          <path class="p" d="M94.13,35.13h0a49.21,49.21,0,0,1,36.53,15.51C141.28,62,146.89,78.91,146.89,99.4c0,35.7-21.87,56.05-40.58,62.65a37.53,37.53,0,0,1-12.19,2.31A37.56,37.56,0,0,1,81.87,162c-18.7-6.61-40.51-27-40.51-62.61,0-20.49,5.61-37.34,16.24-48.77A49.18,49.18,0,0,1,94.13,35.13m0-3.39h0C65,31.74,38,53.42,38,99.39c0,36.93,22.87,58.77,42.77,65.82a40.8,40.8,0,0,0,13.39,2.53,40.68,40.68,0,0,0,13.31-2.49c19.93-7,42.85-28.87,42.85-65.83,0-46-27-67.67-56.16-67.67Z" transform="translate(-5.46 -1.98)"/>
        </g>
        <g>
          <g class="q">
            <path class="r" d="M157.83,76.84s1.73-60.29-64.09-60.29S29.38,76.84,29.38,76.84s-.61,77.75,5.42,87.11c2.24,3.47.49-10.9,2.44-20a11.7,11.7,0,0,1,7-8.68s-.68-6.63-1.07-27.82c-.1-4.95-1.59-23.27,8.75-25.58,37.9-8.51,59.34-28.63,59.34-28.63,5.58,12.19,23,24.05,29.27,28.58,5.14,3.71,4.42,19,4.32,25.48l-2.51,31.58a7,7,0,0,1,8.05,5.73c2,8.48-.51,25,2.27,19.34C157.67,153.75,157.83,76.84,157.83,76.84Z" transform="translate(-5.46 -1.98)"/>
          </g>
          <g>
            <path class="l" d="M101,119.9a2,2,0,0,0-.54-.14H88.62a2.12,2.12,0,0,0-.54.14,2,2,0,0,0-1.15,2.73,8.68,8.68,0,0,0,15.22,0A2,2,0,0,0,101,119.9Z" transform="translate(-5.46 -1.98)"/>
            <g>
              <ellipse class="s" cx="63.24" cy="102.36" rx="8.25" ry="8.54"/>
              <ellipse class="s" cx="114.92" cy="104.61" rx="10.17" ry="10.53"/>
              <path class="t" d="M79.26,89c-1.58-2.08-5.2-5.1-12.26-5.1s-10.7,3-12.26,5.1a2.16,2.16,0,0,0,0,2.63,3,3,0,0,0,3.22.66,23.47,23.47,0,0,1,9.07-2,23.47,23.47,0,0,1,9.07,2,3,3,0,0,0,3.22-.66A2.16,2.16,0,0,0,79.26,89Z" transform="translate(-5.46 -1.98)"/>
              <path class="t" d="M136.79,90.15c-1.88-2.49-6.24-6.12-14.7-6.12s-12.81,3.63-14.7,6.12a2.61,2.61,0,0,0-.05,3.15,3.61,3.61,0,0,0,3.86.78,28.26,28.26,0,0,1,10.88-2.41A27.93,27.93,0,0,1,133,94.08a3.61,3.61,0,0,0,3.86-.78A2.64,2.64,0,0,0,136.79,90.15Z" transform="translate(-5.46 -1.98)"/>
            </g>
            <path class="u" d="M108.21,133.61c-5.34,3.17-22.82,3.17-28.15,0-3.07-1.81-6.19,1-4.92,3.75s10.8,9.09,19,9.09,17.66-6.36,18.92-9.09S111.28,131.78,108.21,133.61Z" transform="translate(-5.46 -1.98)"/>
          </g>
        </g>
        <g class="e">
          <g>
            <g>
              <path class="v" d="M71.38,236.46,44.87,157.36c5.93,3.31,17.73,8.75,31,8.75,1.34,0,2.68-.05,4-.17h0a2.83,2.83,0,0,1,2.58,2.44l8,68.09h-19Z" transform="translate(-5.46 -1.98)"/>
              <path class="w" d="M47.82,160.78c6.66,3.24,16.83,7,28,7,1.39,0,2.78-.07,4.14-.19a1.38,1.38,0,0,1,.75,1l7.76,66.16H72.62l-24.8-74m-6-7.29,28.36,84.65h22.1L84,168A4.49,4.49,0,0,0,80,164.2a1.84,1.84,0,0,0-.31,0c-1.29.12-2.56.17-3.83.17-18.24,0-34-10.9-34-10.9Z" transform="translate(-5.46 -1.98)"/>
            </g>
            <g>
              <path class="x" d="M96.65,236.46l8.19-68.22a2.76,2.76,0,0,1,2.34-2.32.7.7,0,0,1,.19,0,38.5,38.5,0,0,0,4.47.25c12.54,0,24.49-5.56,30.51-8.88l-26.51,79.16Z" transform="translate(-5.46 -1.98)"/>
              <path class="w" d="M139.4,160.73l-24.8,74h-16l7.93-66.16a1.63,1.63,0,0,1,.66-1,42.11,42.11,0,0,0,4.68.25c10.64,0,20.85-3.88,27.56-7.14m6-7.24Zm0,0s-16.39,11-33.56,11a36.36,36.36,0,0,1-4.29-.24,2.75,2.75,0,0,0-.37,0c-1.95,0-3.61,1.75-4,3.81l-8.41,70.12h22.31l28.34-84.67Z" transform="translate(-5.46 -1.98)"/>
            </g>
          </g>
        </g>
        <g class="e">
          <g>
            <path class="y" d="M167.13,237.34s0-6.58,3.39-21c2.86-12.14,4.31-17.42,4.31-17.42A9.65,9.65,0,0,1,186.71,191l16.83,4.2,7.2,40.68Z" transform="translate(-5.46 -1.98)"/>
            <path class="g" d="M203.52,195.24h-5.36c0,1.71.63,3.37.39,5.09h.69l5.41,30.51H176.2c-2.14.59-4.27,1.15-6.41,1.75l-.59,3.34h41.53Z" transform="translate(-5.46 -1.98)"/>
          </g>
        </g>
        <g class="e">
          <ellipse class="h" cx="183.93" cy="196.65" rx="14.81" ry="13.56"/>
        </g>
      </g>
      <g>
        <path class="z" d="M150.37,48.5a220.31,220.31,0,0,0-28.87-4.37c-8.61-.78-18.1.85-27.9.85s-19.29-1.63-27.9-.86c-10.39.93-23.19,4.44-30.82,6.25-13.39,3.2-19.26,6.51-19.26,11.31s7,7,20.37,10.15c7.63,1.81,13.48,6.09,27,7.7,8.58,1,23-2,32.78-2s22.75,3,31.36,2.25c10.39-.93,16.42-4.9,24.05-6.71,13.39-3.19,20.36-6.56,20.36-11.36S163.77,51.69,150.37,48.5Z" transform="translate(-5.46 -1.98)"/>
        <path class="aa" d="M118.28,12.08c-4.8-1.2-12.53-.76-17.37.05-12.1,2.05-10.36.88-21.65-.22-4.53-.44-10.66-.81-15,.51C47.38,17.5,45.38,31.81,34.7,53.89c.24,20.12,118.69,19.93,118.45,0C142.84,32.82,136,16.5,118.28,12.08Z" transform="translate(-5.46 -1.98)"/>
        <path class="ab" d="M74.63,21.64a27.42,27.42,0,0,0,18.56,4.81c6-.66,11.7-2.88,17.19-5.49a1.15,1.15,0,0,1,1.51,1.53c-.83,2.22-9.25,10.44-19.39,10.44-9.37,0-15.65-3.88-18.9-9.54C73.16,22.64,73.5,20.86,74.63,21.64Z" transform="translate(-5.46 -1.98)"/>
        <path class="g" d="M147.93,43c-19.61,11.14-88.68,11.17-108.11-.1-1.64,3.61-3.32,7.32-5.12,11,.24,20.12,118.69,19.92,118.45,0h0C151.4,50.3,149.67,46.62,147.93,43Z" transform="translate(-5.46 -1.98)"/>
      </g>
      <path class="ac" d="M150.59,48.55c-.88-1.86-1.78-3.73-2.66-5.58l-.08.05c-7.81-15.68-15-27.31-29.56-31-4.8-1.2-12.53-.76-17.37.05-12.1,2.05-10.36.88-21.65-.22-4.53-.44-10.66-.81-15,.51C48.39,17.19,45.67,30.13,36.55,50l-1.66.41c-13.39,3.17-19.26,6.47-19.26,11.27s7,7,20.37,10.15c7.63,1.81,13.48,6.09,27,7.7,8.58,1,23-2,32.78-2s22.75,3,31.36,2.25c10.39-.93,16.42-4.9,24.05-6.71,13.39-3.19,20.36-6.56,20.36-11.36S163.86,51.76,150.59,48.55Z" transform="translate(-5.46 -1.98)"/>
      <g>
        <g class="ad">
          <path class="ae" d="M161.88,78.23a36.39,36.39,0,0,1-5.68,51,35.91,35.91,0,0,1-50.68-5.66,36.39,36.39,0,0,1,5.68-51A35.93,35.93,0,0,1,161.88,78.23Z" transform="translate(-5.46 -1.98)"/>
        </g>
        <path class="af" d="M178.11,148.8l-5.95-7.51.46-.37a2.59,2.59,0,0,0,.41-3.63l-.76-.95a2.56,2.56,0,0,0-3.61-.41l-.46.37-5.27-6.64a41.68,41.68,0,0,0,2.78-55,41.14,41.14,0,0,0-58-6.47,41.67,41.67,0,0,0-6.51,58.36,41.15,41.15,0,0,0,53.43,9.7l5.32,6.71-1.07.85a2.59,2.59,0,0,0-.41,3.63l.76.95a2.56,2.56,0,0,0,3.61.41l1.05-.85,5.95,7.51Zm-70.89-27.26A33.74,33.74,0,0,1,112.5,74.3a33.31,33.31,0,0,1,47,5.24,33.74,33.74,0,0,1-5.27,47.24A33.31,33.31,0,0,1,107.23,121.54Z" transform="translate(-5.46 -1.98)"/>
        <polygon class="ag" points="172.66 146.82 164.35 153.48 146.01 130.36 154.31 123.68 172.66 146.82"/>
        <path class="ah" d="M165.71,74.69a41.14,41.14,0,0,0-58-6.47,41.67,41.67,0,0,0-6.51,58.36,41.14,41.14,0,0,0,58,6.47A41.69,41.69,0,0,0,165.71,74.69Zm-11.49,52.09a33.31,33.31,0,0,1-47-5.24A33.74,33.74,0,0,1,112.5,74.3a33.31,33.31,0,0,1,47,5.24A33.74,33.74,0,0,1,154.21,126.78Z" transform="translate(-5.46 -1.98)"/>
        <g>
          <path class="ai" d="M192.95,183.51a1.94,1.94,0,0,1-1.54-.75l-.69-.86a1.67,1.67,0,0,0-.75-.53c-5.37-1.88-11.76-7-17.09-13.71-4.73-6-8.1-12.49-9.24-17.92a11.49,11.49,0,0,0-2.29-4.76l-.39-.49,8-6.44.37.47a11.4,11.4,0,0,0,4.12,3.29c5,2.31,10.59,7.05,15.34,13,5.34,6.71,8.9,14.1,9.54,19.78a1.64,1.64,0,0,0,.34.83l.69.86a2,2,0,0,1-.31,2.81l-1.56,1.25a.91.91,0,0,0-.25.25,3.61,3.61,0,0,1-.56.58,3.05,3.05,0,0,1-.68.42,3,3,0,0,0-.31.19l-1.56,1.25a1.85,1.85,0,0,1-1.22.46Z" transform="translate(-5.46 -1.98)"/>
          <path class="aj" d="M168.76,140.34a13.15,13.15,0,0,0,4,3c4.78,2.2,10.15,6.78,14.75,12.54,5.15,6.47,8.59,13.56,9.2,19a3.27,3.27,0,0,0,.69,1.68l.69.86a.37.37,0,0,1-.05.51l-1.56,1.25a3.6,3.6,0,0,0-.51.51,1.45,1.45,0,0,1-.32.32,2,2,0,0,1-.37.24,2.76,2.76,0,0,0-.59.39l-1.56,1.25a.33.33,0,0,1-.2.07.32.32,0,0,1-.25-.12l-.69-.86a3.25,3.25,0,0,0-1.47-1.05c-5.09-1.78-11.2-6.71-16.34-13.19-4.58-5.76-7.83-12.05-8.92-17.24a13,13,0,0,0-2-4.63l5.47-4.46m.49-4.59-10.58,8.49,1.41,1.76a9.65,9.65,0,0,1,1.95,4.07c1.14,5.46,4.47,12.2,9.56,18.59,5.75,7.22,12.37,12.34,17.83,14.24l.69.86a3.59,3.59,0,0,0,2.83,1.36,3.53,3.53,0,0,0,2.25-.8l1.56-1.25a4.61,4.61,0,0,0,1-.63,4.72,4.72,0,0,0,.81-.83l1.56-1.25a3.65,3.65,0,0,0,.58-5.1l-.69-.86c-.64-5.76-4.15-13.41-9.88-20.63-5.09-6.41-10.88-11.15-15.93-13.48a10,10,0,0,1-3.53-2.81l-1.41-1.73Z" transform="translate(-5.46 -1.98)"/>
        </g>
        <path class="ak" d="M172.62,140.91l-9.83,7.9a2.55,2.55,0,0,1-3.61-.41l-.76-.95a2.58,2.58,0,0,1,.41-3.63l9.83-7.9a2.55,2.55,0,0,1,3.61.41l.76.95A2.59,2.59,0,0,1,172.62,140.91Z" transform="translate(-5.46 -1.98)"/>
      </g>
      <g>
        <path class="al" d="M212.59,190.61l-9.92,9.75c-9.24,7.88-20,8.95-29.36-2.24-20.31-24.29,11-42.09,20.49-37.27C208.07,168,216.71,187.09,212.59,190.61Z" transform="translate(-5.46 -1.98)"/>
        <path class="am" d="M199.07,195.22h0a5.39,5.39,0,0,0,7.56,1.05l6.07-4.61a5.44,5.44,0,0,0,1.05-7.59h0a5.39,5.39,0,0,0-7.56-1.05l-6.07,4.61A5.43,5.43,0,0,0,199.07,195.22Z" transform="translate(-5.46 -1.98)"/>
        <path class="al" d="M194.95,188.36h0a5.43,5.43,0,0,0,7.63,1l7.92-6.09a5.47,5.47,0,0,0,1-7.64h0a5.43,5.43,0,0,0-7.63-1L196,180.71A5.45,5.45,0,0,0,194.95,188.36Z" transform="translate(-5.46 -1.98)"/>
        <path class="al" d="M189.89,182.87h0a5.32,5.32,0,0,0,7.49.61l9.22-7.88a5.34,5.34,0,0,0,.61-7.51h0a5.32,5.32,0,0,0-7.49-.61l-9.22,7.88A5.34,5.34,0,0,0,189.89,182.87Z" transform="translate(-5.46 -1.98)"/>
        <path class="al" d="M182.95,176.36h0a5.31,5.31,0,0,0,7.51.2l8.78-8.37a5.35,5.35,0,0,0,.2-7.54h0a5.31,5.31,0,0,0-7.51-.2l-8.78,8.37A5.35,5.35,0,0,0,182.95,176.36Z" transform="translate(-5.46 -1.98)"/>
        <g>
          <path class="an" d="M187.18,154.69c-1.17.73-5.46,3.07-8.09,4.8a42.52,42.52,0,0,0-4.37,3.34c-2.68,2.7-7.81,14.48-7.76,18.42a9.25,9.25,0,0,0,1.68,5.15c-.05-1,6.63,16.7,16.12,2.27,4.25-5.76-3.2-10.34-3.31-13.68-.07-2.56,0-6.51,8-10.68,2.25-1.17,5.09-4.17,4.81-6.54C193.86,153.68,190.57,152.56,187.18,154.69Z" transform="translate(-5.46 -1.98)"/>
          <path class="ao" d="M193.15,151.95c-1.86-.88-4.24-.56-6.49.88-.39.25-1.14.68-2.05,1.22-1.83,1.07-4.34,2.53-6.14,3.73a42.44,42.44,0,0,0-4.7,3.63c-7.41,7.75-9.24,15.75-8.83,20.88.27,3.36,4.22,5.75,4,4.73-1.2-5.39-1-8.92,1.46-14.73a24.55,24.55,0,0,1,5.73-8.56,43.22,43.22,0,0,1,4.14-3.17c1.7-1.14,4.15-2.56,5.95-3.61,1-.56,1.76-1,2.17-1.29a3.6,3.6,0,0,1,3.25-.66,3.48,3.48,0,0,1,1.83,2.58c.12,1.29-2.22,4.15-4.29,5.24-2.92,1.54-6.2,3.05-7.95,6-1.32,2.2-2.2,5.46-1.2,7.78s5.83,5.83,5.86,10.95a26.26,26.26,0,0,1-1.41,6.2s3.64-2.46,4.32-5.15c.95-3.8-1-8-3.1-10.92-.92-1.31-2.95-3.19-2.95-3.85,0-2.14-.41-4.92,6.93-8.8,2.54-1.34,6.9-4.63,6.58-8A5.88,5.88,0,0,0,193.15,151.95Z" transform="translate(-5.46 -1.98)"/>
        </g>
      </g>
    </g>
  </g>
  <g>
    <path class="ap" d="M311.22,103.5H270v15.66H320.5v33h-91.7V23.33h90.67l-5.15,33H270V73.61h41.21Z" transform="translate(-5.46 -1.98)"/>
    <path class="ap" d="M371.54,152.13H328.47l7.83-128.8h53.79l16.07,65.53h1.44l16.07-65.53h53.79l7.83,128.8H442.22l-2.47-62.44h-1.44l-15.66,62.44H391.12L375.25,89.69H374Z" transform="translate(-5.46 -1.98)"/>
  </g>
  <g>
    <path class="ap" d="M620.93,149.13l-4.12-33h17.1q6.39,0,8.14-1.75A6,6,0,0,0,643.8,110V53.3H626.7v-33H685v94.79q0,16.69-8.24,25.35t-23.7,8.66Z" transform="translate(-5.46 -1.98)"/>
    <path class="ap" d="M699.28,149.13V20.33h41.22v128.8Z" transform="translate(-5.46 -1.98)"/>
  </g>
  <g>
    <polygon class="aq" points="652.96 164.11 636.85 180.31 572.43 115.53 588.54 99.35 652.96 164.11"/>
    <g class="ar">
      <path class="k" d="M594,109.45l56.35,56.66-8,8.08-56.35-56.66,8-8.08m0-8.12-16.11,16.19,64.42,64.78L658.4,166.1,594,101.33Z" transform="translate(-5.46 -1.98)"/>
    </g>
    <path class="as" d="M610.55,24.9a78.52,78.52,0,0,1,0,110.63,77.51,77.51,0,0,1-110,0,78.52,78.52,0,0,1,0-110.63A77.5,77.5,0,0,1,610.55,24.9Z" transform="translate(-5.46 -1.98)"/>
    <path class="at" d="M676.6,164.62c-12.35-12.43-25.83-21.16-37.14-24.9a20.83,20.83,0,0,1-8.16-5.17l-3.39-3.41-20.49,20.59,3.39,3.41a20.74,20.74,0,0,1,5.13,8.2c3.74,11.36,12.41,24.9,24.76,37.33,13.94,14,29.28,23.32,41.35,26.1l1.68,1.7a7.72,7.72,0,0,0,10.94,0l3-3.05a12.82,12.82,0,0,0,1.94-1.54,10.82,10.82,0,0,0,1.54-1.94l3-3.05a7.79,7.79,0,0,0,0-11l-1.68-1.7C699.78,194.07,690.54,178.63,676.6,164.62Z" transform="translate(-5.46 -1.98)"/>
    <g class="ar">
      <path class="k" d="M555.53,7.7a71.38,71.38,0,0,1,51,21.22,72.89,72.89,0,0,1,0,102.56,71.8,71.8,0,0,1-101.92,0,72.89,72.89,0,0,1,0-102.56,71.41,71.41,0,0,1,51-21.22m0-5.72a77.39,77.39,0,0,0-55,22.91,78.52,78.52,0,0,0,0,110.63,77.51,77.51,0,0,0,110,0,78.52,78.52,0,0,0,0-110.63A77.36,77.36,0,0,0,555.53,2Z" transform="translate(-5.46 -1.98)"/>
    </g>
    <g class="ar">
      <path class="k" d="M627.91,139.24a26.43,26.43,0,0,0,9.74,5.91c10.9,3.62,23.62,12.18,34.89,23.51,12.66,12.73,21.81,27.24,24.44,38.79l.36,1.6,1.16,1.16,1.68,1.7a2.09,2.09,0,0,1,0,2.94l-3,3.05-.44.44-.32.53a5.13,5.13,0,0,1-.78,1,5.81,5.81,0,0,1-1,.78l-.51.34-.44.44-3,3.05a2,2,0,0,1-1.41.59,2,2,0,0,1-1.41-.59l-1.68-1.7L685,221.6l-1.6-.36c-11.5-2.65-25.91-11.82-38.57-24.55-11.27-11.32-19.79-24.12-23.39-35.08a26.56,26.56,0,0,0-5.91-9.82l12.39-12.54m0-8.1L607.4,151.73l3.39,3.41a20.74,20.74,0,0,1,5.13,8.2c3.74,11.36,12.41,24.9,24.76,37.33,13.94,14,29.28,23.32,41.35,26.1l1.68,1.7a7.69,7.69,0,0,0,10.94,0l3-3.05a12.82,12.82,0,0,0,1.94-1.54,10.82,10.82,0,0,0,1.54-1.94l3-3.05a7.79,7.79,0,0,0,0-11l-1.68-1.7c-2.76-12.12-12-27.55-25.95-41.56-12.35-12.43-25.83-21.16-37.14-24.9a20.83,20.83,0,0,1-8.16-5.17l-3.39-3.41Z" transform="translate(-5.46 -1.98)"/>
    </g>
    <path class="au" d="M599.91,35.27a63.58,63.58,0,0,1,0,89.56,62.73,62.73,0,0,1-89.07,0,63.58,63.58,0,0,1,0-89.56A62.73,62.73,0,0,1,599.91,35.27Z" transform="translate(-5.46 -1.98)"/>
    <g class="ar">
      <path class="av" d="M555.38,22.44a56.71,56.71,0,0,1,40.47,16.85,57.9,57.9,0,0,1,0,81.48,57,57,0,0,1-80.95,0,57.9,57.9,0,0,1,0-81.48,56.68,56.68,0,0,1,40.47-16.85m0-5.72a62.56,62.56,0,0,0-44.53,18.55,63.58,63.58,0,0,0,0,89.56,62.73,62.73,0,0,0,89.07,0,63.58,63.58,0,0,0,0-89.56,62.59,62.59,0,0,0-44.53-18.55Z" transform="translate(-5.46 -1.98)"/>
    </g>
    <path class="aw" d="M636.32,141.34l-19,19.16a5.48,5.48,0,0,1-7.8,0l-1.83-1.85a5.56,5.56,0,0,1,0-7.84l19-19.16a5.48,5.48,0,0,1,7.8,0l1.83,1.85A5.56,5.56,0,0,1,636.32,141.34Z" transform="translate(-5.46 -1.98)"/>
    <g class="ar">
      <path class="k" d="M630.58,133.85a1.67,1.67,0,0,1,1.2.5l1.83,1.85a1.76,1.76,0,0,1,0,2.46l-19,19.16a1.7,1.7,0,0,1-2.4,0L610.34,156a1.76,1.76,0,0,1,0-2.46l19-19.16a1.78,1.78,0,0,1,1.2-.5m0-3.81a5.42,5.42,0,0,0-3.89,1.62l-19,19.16a5.56,5.56,0,0,0,0,7.84l1.83,1.85a5.48,5.48,0,0,0,7.78,0l19-19.16a5.56,5.56,0,0,0,0-7.84l-1.83-1.85a5.5,5.5,0,0,0-3.89-1.62Z" transform="translate(-5.46 -1.98)"/>
    </g>
  </g>
  <g>
    <path class="ap" d="M225.81,211l1.93-11.38a47.53,47.53,0,0,0,11.42,1.59,64.38,64.38,0,0,0,8.17-.41V197.3l-6.21-.55q-8.42-.76-11.56-4T226.43,183q0-8.83,3.83-12.14t13-3.31a73,73,0,0,1,16.56,1.72l-1.72,11a68,68,0,0,0-10.28-1,52.76,52.76,0,0,0-6.55.34V183l5,.48q9,.9,12.49,4.31t3.45,9.49a20.25,20.25,0,0,1-1.17,7.35,12.58,12.58,0,0,1-2.79,4.55,10.68,10.68,0,0,1-4.59,2.38,27.68,27.68,0,0,1-5.21,1q-2.24.17-6,.17A72.86,72.86,0,0,1,225.81,211Z" transform="translate(-5.46 -1.98)"/>
    <path class="ap" d="M294.88,199.37l1,11.59a28.74,28.74,0,0,1-10.9,1.79,32.85,32.85,0,0,1-10.52-1.38,13,13,0,0,1-6.24-4.35,17.58,17.58,0,0,1-3.17-7,46,46,0,0,1-.9-9.87,46.46,46.46,0,0,1,.9-9.9,17.59,17.59,0,0,1,3.17-7q4.41-5.73,16.21-5.73a43.65,43.65,0,0,1,6.17.52,21.82,21.82,0,0,1,5.28,1.28l-2.07,10.55a39.27,39.27,0,0,0-8.21-1,13.39,13.39,0,0,0-5.17.69A2.75,2.75,0,0,0,279,182.4v18.07a27,27,0,0,0,5.45.55A30.38,30.38,0,0,0,294.88,199.37Z" transform="translate(-5.46 -1.98)"/>
    <path class="ap" d="M311.4,211.72H296.85L308,168.6h21.32l11.18,43.12H326l-1.59-6.83H313Zm6.9-29.87-2.83,12.07h6.35l-2.76-12.07Z" transform="translate(-5.46 -1.98)"/>
    <path class="ap" d="M363.56,168.6h14.56l-10.69,43.12H347.28L336.59,168.6h14.56L357,196h.62Z" transform="translate(-5.46 -1.98)"/>
    <path class="ap" d="M408,195.44h-13.8v5.24h16.9v11h-30.7V168.6h30.35l-1.72,11H394.16v5.79H408Z" transform="translate(-5.46 -1.98)"/>
    <path class="ap" d="M440.59,211.72,430,196.41a7.07,7.07,0,0,1-.69-3.31h-.28v18.63h-13.8V168.6h13l10.55,15.32a7.1,7.1,0,0,1,.69,3.31h.28V168.6h13.8v43.12Z" transform="translate(-5.46 -1.98)"/>
    <path class="ap" d="M481.31,199v-1.86h-3.52V186.61h16.63v23a47.6,47.6,0,0,1-17,3.1q-11.8,0-16.21-5.73a17.59,17.59,0,0,1-3.17-7,46.18,46.18,0,0,1-.9-9.9,44.09,44.09,0,0,1,.93-9.87,17,17,0,0,1,3.35-6.93q4.55-5.79,17.59-5.79a57.53,57.53,0,0,1,7,.55,34.73,34.73,0,0,1,6.31,1.24l-2.07,10.55a59.9,59.9,0,0,0-10.11-1,20.15,20.15,0,0,0-6.35.69A2.68,2.68,0,0,0,472,182.4v19.52h4.55a9.34,9.34,0,0,0,3.62-.52Q481.31,200.89,481.31,199Z" transform="translate(-5.46 -1.98)"/>
    <path class="ap" d="M526.74,195.44h-13.8v5.24h16.9v11h-30.7V168.6H529.5l-1.72,11H512.94v5.79h13.8Z" transform="translate(-5.46 -1.98)"/>
    <path class="ap" d="M571.65,211.72H556.47l-5.66-12.83h-3v12.83h-13.8V168.6h21.73q14.83,0,14.83,15.11,0,10.35-6.42,13.66Zm-23.8-32.08v8.62H551a9.34,9.34,0,0,0,3.62-.52q1.14-.52,1.14-2.38v-2.83q0-1.86-1.14-2.38a9.32,9.32,0,0,0-3.62-.52Z" transform="translate(-5.46 -1.98)"/>
    <path class="ap" d="M611,211.72V196.47H600.62v15.25h-13.8V168.6h13.8v15.25H611V168.6h13.8v43.12Z" transform="translate(-5.46 -1.98)"/>
    <path class="ap" d="M643.28,168.6V201h4.9a6.88,6.88,0,0,0,3.59-.66q1-.65,1-3V168.6h13.8v24.21a47.43,47.43,0,0,1-.76,9.45,13.76,13.76,0,0,1-2.83,6.07,10.77,10.77,0,0,1-5.66,3.45,36.84,36.84,0,0,1-9.31,1,36.41,36.41,0,0,1-9.28-1,10.76,10.76,0,0,1-5.62-3.45,13.75,13.75,0,0,1-2.83-6.07,47.35,47.35,0,0,1-.76-9.45V168.6Z" transform="translate(-5.46 -1.98)"/>
    <path class="ap" d="M696.56,211.72,686,196.41a7.07,7.07,0,0,1-.69-3.31H685v18.63h-13.8V168.6h13l10.55,15.32a7.1,7.1,0,0,1,.69,3.31h.28V168.6h13.8v43.12Z" transform="translate(-5.46 -1.98)"/>
    <path class="ap" d="M745.7,179.64h-10v32.08H721.9V179.64h-10v-11h33.8Z" transform="translate(-5.46 -1.98)"/>
  </g>
</svg>
