<svg id="twitter" xmlns="http://www.w3.org/2000/svg" viewBox="0 0 82 82"><defs><style>.cls-1{fill:#39f;}.cls-2{fill:#fff;}</style></defs><title>twitter</title><rect class="cls-1" width="82" height="82"/><g id="layer1"><path id="path3611" class="cls-2" d="M28.95,67.4c24.52,0,37.93-20.31,37.93-37.93q0-.87,0-1.72a27.11,27.11,0,0,0,6.65-6.9,26.58,26.58,0,0,1-7.66,2.1,13.38,13.38,0,0,0,5.86-7.37,26.73,26.73,0,0,1-8.47,3.24A13.34,13.34,0,0,0,40.51,31,37.85,37.85,0,0,1,13,17a13.34,13.34,0,0,0,4.13,17.8,13.23,13.23,0,0,1-6-1.67c0,.06,0,.11,0,.17a13.33,13.33,0,0,0,10.7,13.07,13.31,13.31,0,0,1-6,.23,13.34,13.34,0,0,0,12.45,9.26A26.74,26.74,0,0,1,11.69,61.6a27.08,27.08,0,0,1-3.18-.18,37.74,37.74,0,0,0,20.44,6" transform="translate(0 0)"/></g></svg>