<svg version="1.1" id="Layer_1" xmlns="http://www.w3.org/2000/svg" xmlns:xlink="http://www.w3.org/1999/xlink" x="0px" y="0px"
	 viewBox="0 0 128 128" style="enable-background:new 0 0 128 128;" xml:space="preserve">
<style type="text/css">
	.st0{fill:#eaeaea;}
	.st1{opacity:0.2;}
	.st2{fill:#424242;}
</style>
<g>
	<path class="st0" d="M82.3,65.4c-0.8-0.8-0.8-2,0-2.8l38.2-38.1c4.7-4.7,4.7-12.3,0-17s-12.2-4.7-16.9,0L65.4,45.7
		c-0.8,0.8-2,0.8-2.8,0L24.5,7.5c-4.7-4.7-12.3-4.7-17,0s-4.7,12.2,0,16.9l38.1,38.2c0.8,0.8,0.8,2.1,0,2.8L7.5,103.5
		c-4.7,4.7-4.7,12.3,0,17s12.2,4.7,16.9,0l38.2-38.1c0.8-0.8,2.1-0.8,2.8,0l38.1,38.2c4.7,4.7,12.3,4.7,17,0s4.7-12.2,0-16.9
		L82.3,65.4z"/>
	<g class="st1">
		<path class="st2" d="M16,7c2.4,0,4.7,0.9,6.4,2.6l38.1,38.2c0.9,1,2.2,1.5,3.5,1.5c1.3,0,2.6-0.5,3.5-1.5l38.2-38.1
			c1.7-1.7,3.9-2.6,6.3-2.6s4.6,0.9,6.3,2.6c3.5,3.5,3.5,9.2,0,12.7L80.2,60.5c-1.9,2-1.9,5.1,0,7.1l38.1,38.2
			c1.7,1.7,2.6,3.9,2.6,6.3s-0.9,4.6-2.6,6.3s-4,2.6-6.4,2.6s-4.7-0.9-6.4-2.6L67.5,80.2c-0.9-0.9-2.2-1.5-3.5-1.5
			c-1.3,0-2.6,0.5-3.5,1.5l-38.2,38.1c-1.7,1.7-3.9,2.6-6.3,2.6s-4.6-0.9-6.3-2.6c-3.5-3.5-3.5-9.2,0-12.7l38.2-38.1
			c2-1.9,2-5.1,0-7.1L9.6,22.3C7.9,20.6,7,18.3,7,15.9s0.9-4.6,2.6-6.3S13.6,7,16,7 M16,4c-3.1,0-6.1,1.2-8.5,3.5
			c-4.7,4.7-4.7,12.2,0,16.9l38.1,38.2c0.8,0.8,0.8,2.1,0,2.8L7.5,103.5c-4.7,4.7-4.7,12.3,0,17c2.3,2.3,5.4,3.5,8.4,3.5
			s6.1-1.2,8.4-3.5l38.2-38.1c0.4-0.4,0.9-0.6,1.4-0.6s1,0.2,1.4,0.6l38.1,38.2c2.3,2.3,5.4,3.5,8.5,3.5s6.1-1.2,8.5-3.5
			c4.7-4.7,4.7-12.2,0-16.9L82.3,65.4c-0.8-0.8-0.8-2,0-2.8l38.2-38.1c4.7-4.7,4.7-12.3,0-17c-2.3-2.3-5.4-3.5-8.4-3.5
			s-6.1,1.2-8.4,3.5L65.4,45.7C65,46,64.5,46.2,64,46.2c-0.5,0-1-0.2-1.4-0.6L24.5,7.5C22.1,5.2,19.1,4,16,4L16,4z"/>
	</g>
</g>
</svg>
