<svg version="1.1" id="Layer_1" xmlns="http://www.w3.org/2000/svg" xmlns:xlink="http://www.w3.org/1999/xlink" x="0px" y="0px"
	 viewBox="0 0 128 128" style="enable-background:new 0 0 128 128;" xml:space="preserve">
<style type="text/css">
	.st0{fill:#eaeaea;}
	.st1{opacity:0.2;}
	.st2{fill:#424242;}
</style>
<g>
	<path class="st0" d="M64,16c26.5,0,48,21.5,48,48s-21.5,48-48,48S16,90.5,16,64S37.5,16,64,16 M64,4C30.9,4,4,30.9,4,64
		s26.9,60,60,60s60-26.9,60-60S97.1,4,64,4L64,4z"/>
	<g class="st1">
		<path class="st2" d="M64,16c26.5,0,48,21.5,48,48s-21.5,48-48,48S16,90.5,16,64S37.5,16,64,16 M64,13c-28.1,0-51,22.9-51,51
			s22.9,51,51,51s51-22.9,51-51S92.1,13,64,13L64,13z"/>
	</g>
	<g>
		<path class="st0" d="M69,102H59c-1.1,0-2-0.9-2-2V52c0-1.1,0.9-2,2-2h10c1.1,0,2,0.9,2,2v48C71,101.1,70.1,102,69,102z"/>
		<circle class="st0" cx="64" cy="35" r="9"/>
	</g>
	<g class="st1">
		<path class="st2" d="M64,7c31.4,0,57,25.6,57,57s-25.6,57-57,57S7,95.4,7,64S32.6,7,64,7 M64,4C30.9,4,4,30.9,4,64s26.9,60,60,60
			s60-26.9,60-60S97.1,4,64,4L64,4z"/>
	</g>
	<g class="st1">
		<path class="st2" d="M68,53v46h-8V53H68 M69,50H59c-1.1,0-2,0.9-2,2v48c0,1.1,0.9,2,2,2h10c1.1,0,2-0.9,2-2V52
			C71,50.9,70.1,50,69,50L69,50z"/>
		<path class="st2" d="M64,29c3.3,0,6,2.7,6,6s-2.7,6-6,6s-6-2.7-6-6S60.7,29,64,29 M64,26c-5,0-9,4-9,9s4,9,9,9s9-4,9-9
			S69,26,64,26L64,26z"/>
	</g>
</g>
</svg>
